# xmcd
#
# Track frame offsets:
#	150
#	16050
#	32100
#	46800
#	58800
#	75900
#	87975
#	100650
#	116925
#	133725
#	146775
#	161100
#	175275
#	196950
#
# Disc length: 2761 seconds
#
# Revision: 1
# Processed by: cddbd v1.5.1PL0 Copyright (c) Steve Scherf et al.
# Submitted via: audiograbber 1.83.01
#
DISCID=bb0ac70e
DTITLE=Thor Wang - La Tiden Leve
DYEAR=1900
DGENRE=Folk
TTITLE0=La tiden leve
TTITLE1=Det brenner en flamme
TTITLE2=Oppi lia
TTITLE3=Sixpens med ruter i
TTITLE4=Sangen til mor
TTITLE5=Vajkadu
TTITLE6=Den gamle grinda
TTITLE7=Kom ta min hånd
TTITLE8=En tåre har jeg gjemt
TTITLE9=Livet er så fint
TTITLE10=Harajakt
TTITLE11=Inne i dalen
TTITLE12=Tiden du ga meg
TTITLE13=Følj me mæ
EXTD=
EXTT0=
EXTT1=
EXTT2=
EXTT3=
EXTT4=
EXTT5=
EXTT6=
EXTT7=
EXTT8=
EXTT9=
EXTT10=
EXTT11=
EXTT12=
EXTT13=
PLAYORDER=
